<svg xmlns="http://www.w3.org/2000/svg" xmlns:xlink="http://www.w3.org/1999/xlink" viewBox="0 0 166.62 89.32"><defs><style>.cls-1{fill:#333;}.cls-2{fill:#fff;}.cls-3{fill:#fbb03b;}.cls-4{fill:none;stroke-miterlimit:10;stroke-width:4px;stroke:url(#未命名漸層_103);}.cls-5{fill:#8fc31f;}</style><linearGradient id="未命名漸層_103" x1="26.12" y1="27.11" x2="26.12" y2="89.32" gradientUnits="userSpaceOnUse"><stop offset="0" stop-color="#8fc31f"/><stop offset="1" stop-color="#2ea7b4"/></linearGradient></defs><title>資產 1</title><g id="圖層_2" data-name="圖層 2"><g id="圖層_6" data-name="圖層 6"><path class="cls-1" d="M43.69,17.57a17.44,17.44,0,0,1-4.33,11.54H12.87A17.57,17.57,0,1,1,43.69,17.57Z"/><path class="cls-2" d="M18.83,25.6l2.53-3a7.81,7.81,0,0,0,4.81,2.05c1.84,0,2.74-.73,2.74-1.89s-1.11-1.63-2.81-2.33l-2.55-1.08A5.71,5.71,0,0,1,19.61,14c0-3.24,2.89-5.83,7-5.83a9.06,9.06,0,0,1,6.29,2.56L30.63,13.5A6.35,6.35,0,0,0,26.57,12c-1.52,0-2.49.63-2.49,1.75s1.28,1.64,3,2.31l2.5,1c2.38,1,3.87,2.56,3.87,5.32,0,3.25-2.7,6.06-7.36,6.06A10.75,10.75,0,0,1,18.83,25.6Z"/><rect class="cls-2" x="24.15" y="5.11" width="3.83" height="3.83"/><path class="cls-1" d="M68.41,27.09h5.8v32.7h-5.8Z"/><path class="cls-1" d="M80.47,45.09H92.35v4.2H80.47Z"/><path class="cls-1" d="M98,27.09h10.46c6.72,0,11.66,2.06,11.66,8.06a7.34,7.34,0,0,1-4.54,7.08v.2c3.62.82,6.28,3.34,6.28,7.76,0,6.54-5.36,9.6-12.56,9.6H98ZM108,40.59c4.56,0,6.5-1.78,6.5-4.62,0-3.16-2.14-4.36-6.38-4.36h-4.26v9Zm.76,14.68c4.8,0,7.48-1.72,7.48-5.4,0-3.44-2.6-4.94-7.48-4.94h-4.9V55.27Z"/><path class="cls-1" d="M127.86,27.09h5.8v32.7h-5.8Z"/><path class="cls-1" d="M142,27.09h8.72c10,0,15.94,5.4,15.94,16.22S160.7,59.79,151,59.79h-9Zm8.34,28c6.58,0,10.36-3.74,10.36-11.78s-3.78-11.52-10.36-11.52h-2.54v23.3Z"/><path class="cls-3" d="M68.43,72.19h2.21v5h5v-5h2.2V84.62h-2.2V79.11h-5v5.51H68.43Z"/><path class="cls-3" d="M80.34,82.11c0-2,1.65-3,5.48-3.45,0-1-.43-1.84-1.69-1.84a5.15,5.15,0,0,0-2.62.92l-.81-1.46a7.34,7.34,0,0,1,3.83-1.22c2.34,0,3.48,1.43,3.48,4v5.53H86.22l-.17-1H86a4.46,4.46,0,0,1-2.89,1.26A2.61,2.61,0,0,1,80.34,82.11Zm1-11.32,1.51-1.45,2.8,3.32L84.6,73.73Zm4.44,11.33V80c-2.53.32-3.37,1-3.37,1.92s.56,1.19,1.35,1.19A2.91,2.91,0,0,0,85.82,82.12Z"/><path class="cls-3" d="M90.64,75.29h1.8l.16,1.26h.07a4.31,4.31,0,0,1,3.06-1.49c2,0,2.87,1.35,2.87,3.71v5.85H96.41V79.05c0-1.54-.44-2.12-1.45-2.12a3,3,0,0,0-2.13,1.17v6.52H90.64Z"/><path class="cls-3" d="M100.65,86.31a2.37,2.37,0,0,1,1.34-2v-.08a1.75,1.75,0,0,1-.84-1.55,2.24,2.24,0,0,1,1-1.74v-.08A3.1,3.1,0,0,1,101,78.41a3.39,3.39,0,0,1,3.68-3.35,4.13,4.13,0,0,1,1.39.23h3.33v1.62h-1.7a2.43,2.43,0,0,1,.53,1.57c0,2.07-1.57,3.18-3.55,3.18a3.44,3.44,0,0,1-1.26-.25,1.08,1.08,0,0,0-.45.9c0,.52.38.84,1.51.84h1.66c2.23,0,3.42.69,3.42,2.3,0,1.84-1.93,3.29-5,3.29C102.3,88.74,100.65,87.94,100.65,86.31Zm6.74-.5c0-.72-.57-.93-1.64-.93h-1.28a5.08,5.08,0,0,1-1.26-.13,1.53,1.53,0,0,0-.73,1.23c0,.85.92,1.34,2.38,1.34S107.39,86.61,107.39,85.81Zm-1.14-7.4a1.63,1.63,0,1,0-3.23,0,1.63,1.63,0,1,0,3.23,0Z"/><path class="cls-3" d="M114.5,78.45c0-4.07,2.58-6.49,5.88-6.49a5.09,5.09,0,0,1,3.75,1.58L123,75a3.38,3.38,0,0,0-2.51-1.08c-2.2,0-3.69,1.71-3.69,4.5s1.32,4.55,3.81,4.55a2.77,2.77,0,0,0,1.77-.55V79.7H120V77.89h4.32v5.48a5.64,5.64,0,0,1-4,1.47C117,84.84,114.5,82.56,114.5,78.45Z"/><path class="cls-3" d="M126.64,72.41A1.36,1.36,0,1,1,128,73.65,1.26,1.26,0,0,1,126.64,72.41Zm.26,2.88h2.18v9.33H126.9Z"/><path class="cls-3" d="M131.37,82.11c0-2,1.66-3,5.49-3.45,0-1-.44-1.84-1.7-1.84a5.18,5.18,0,0,0-2.62.92l-.8-1.46a7.28,7.28,0,0,1,3.83-1.22c2.33,0,3.48,1.43,3.48,4v5.53h-1.8l-.16-1H137a4.46,4.46,0,0,1-2.89,1.26A2.62,2.62,0,0,1,131.37,82.11Zm5.49,0V80c-2.53.32-3.38,1-3.38,1.92s.57,1.19,1.35,1.19A2.94,2.94,0,0,0,136.86,82.12Zm-2.38-9.46,2.8-3.32,1.5,1.45-3.21,2.94Z"/><path class="cls-3" d="M145.67,72.19h4.18c2.59,0,4.58.91,4.58,3.69s-2,3.88-4.58,3.88h-2v4.86h-2.2Zm4,5.81c1.7,0,2.63-.71,2.63-2.12S151.33,74,149.63,74h-1.76v4Zm-.19,1.17,1.6-1.31,3.87,6.76h-2.47Z"/><path class="cls-3" d="M155.92,80c0-3,2.1-4.9,4.3-4.9,2.52,0,3.85,1.82,3.85,4.43a5.64,5.64,0,0,1-.09,1.06h-5.93a2.66,2.66,0,0,0,2.76,2.6,3.94,3.94,0,0,0,2.16-.68l.75,1.36a5.81,5.81,0,0,1-3.2,1C157.94,84.84,155.92,83,155.92,80Zm6.26-.9c0-1.43-.64-2.31-1.91-2.31A2.34,2.34,0,0,0,158,79.06Zm-2.87-6.21c.54-.12,1-.32,1-.78s-.48-.77-1.55-.84l.13-1.38c2.11.06,3.06.83,3.06,2.05s-1.13,1.74-2.4,1.89Z"/><path class="cls-4" d="M3,29.11H49.24a1,1,0,0,1,1,1V86.32a1,1,0,0,1-1,1H27.12a1,1,0,0,1-1-1V73.76a1,1,0,0,0-1-1H21.46a10,10,0,0,1-10-9.89l0-3.67a1,1,0,0,0-1-1H3a1,1,0,0,1-1-1V30.11A1,1,0,0,1,3,29.11Z"/><circle class="cls-5" cx="12.94" cy="46.59" r="2.94"/></g></g></svg>